<mxfile host="app.diagrams.net" modified="2022-04-27T08:57:08.790Z" agent="5.0 (Windows NT 10.0; Win64; x64) AppleWebKit/537.36 (KHTML, like Gecko) Chrome/100.0.4896.127 Safari/537.36 Edg/100.0.1185.50" etag="983n75If2M1uylQp_5js" version="17.4.6" type="github">
  <diagram id="5fncajlDtrCnJXy9b40n" name="Page-1">
    <mxGraphModel dx="1038" dy="579" grid="1" gridSize="10" guides="1" tooltips="1" connect="1" arrows="1" fold="1" page="1" pageScale="1" pageWidth="850" pageHeight="1100" math="0" shadow="0">
      <root>
        <mxCell id="0" />
        <mxCell id="1" parent="0" />
        <mxCell id="dib6iKje-ptkpL54VLFL-3" value="" style="edgeStyle=orthogonalEdgeStyle;rounded=0;orthogonalLoop=1;jettySize=auto;html=1;fontColor=#000000;" edge="1" parent="1" source="dib6iKje-ptkpL54VLFL-1" target="dib6iKje-ptkpL54VLFL-2">
          <mxGeometry relative="1" as="geometry" />
        </mxCell>
        <mxCell id="dib6iKje-ptkpL54VLFL-1" value="start" style="rounded=1;whiteSpace=wrap;html=1;fontColor=#000000;" vertex="1" parent="1">
          <mxGeometry x="20" y="20" width="100" height="30" as="geometry" />
        </mxCell>
        <mxCell id="dib6iKje-ptkpL54VLFL-5" value="" style="edgeStyle=orthogonalEdgeStyle;rounded=0;orthogonalLoop=1;jettySize=auto;html=1;fontColor=#000000;" edge="1" parent="1" source="dib6iKje-ptkpL54VLFL-2" target="dib6iKje-ptkpL54VLFL-4">
          <mxGeometry relative="1" as="geometry" />
        </mxCell>
        <mxCell id="dib6iKje-ptkpL54VLFL-2" value="format the game time and reset the pop player zone array" style="rounded=0;whiteSpace=wrap;html=1;fontColor=#000000;" vertex="1" parent="1">
          <mxGeometry x="10" y="90" width="120" height="60" as="geometry" />
        </mxCell>
        <mxCell id="dib6iKje-ptkpL54VLFL-7" value="" style="edgeStyle=orthogonalEdgeStyle;rounded=0;orthogonalLoop=1;jettySize=auto;html=1;fontColor=#000000;" edge="1" parent="1" source="dib6iKje-ptkpL54VLFL-4" target="dib6iKje-ptkpL54VLFL-6">
          <mxGeometry relative="1" as="geometry" />
        </mxCell>
        <mxCell id="dib6iKje-ptkpL54VLFL-4" value="FOR all arena agents" style="rhombus;whiteSpace=wrap;html=1;fontColor=#000000;" vertex="1" parent="1">
          <mxGeometry x="30" y="180" width="80" height="80" as="geometry" />
        </mxCell>
        <mxCell id="dib6iKje-ptkpL54VLFL-9" value="" style="edgeStyle=orthogonalEdgeStyle;rounded=0;orthogonalLoop=1;jettySize=auto;html=1;fontColor=#000000;" edge="1" parent="1" source="dib6iKje-ptkpL54VLFL-6" target="dib6iKje-ptkpL54VLFL-8">
          <mxGeometry relative="1" as="geometry" />
        </mxCell>
        <mxCell id="dib6iKje-ptkpL54VLFL-6" value="get the rvo id" style="whiteSpace=wrap;html=1;fontColor=#000000;" vertex="1" parent="1">
          <mxGeometry x="10" y="280" width="120" height="60" as="geometry" />
        </mxCell>
        <mxCell id="dib6iKje-ptkpL54VLFL-11" style="edgeStyle=orthogonalEdgeStyle;rounded=0;orthogonalLoop=1;jettySize=auto;html=1;entryX=0;entryY=0.5;entryDx=0;entryDy=0;fontColor=#000000;" edge="1" parent="1" source="dib6iKje-ptkpL54VLFL-8" target="dib6iKje-ptkpL54VLFL-10">
          <mxGeometry relative="1" as="geometry" />
        </mxCell>
        <mxCell id="dib6iKje-ptkpL54VLFL-66" style="edgeStyle=orthogonalEdgeStyle;rounded=0;orthogonalLoop=1;jettySize=auto;html=1;entryX=0.5;entryY=0;entryDx=0;entryDy=0;fontColor=#000000;" edge="1" parent="1" source="dib6iKje-ptkpL54VLFL-8" target="dib6iKje-ptkpL54VLFL-65">
          <mxGeometry relative="1" as="geometry" />
        </mxCell>
        <mxCell id="dib6iKje-ptkpL54VLFL-69" value="yes" style="edgeLabel;html=1;align=center;verticalAlign=middle;resizable=0;points=[];fontColor=#000000;" vertex="1" connectable="0" parent="dib6iKje-ptkpL54VLFL-66">
          <mxGeometry x="-0.6367" y="-1" relative="1" as="geometry">
            <mxPoint as="offset" />
          </mxGeometry>
        </mxCell>
        <mxCell id="dib6iKje-ptkpL54VLFL-68" value="" style="edgeStyle=orthogonalEdgeStyle;rounded=0;orthogonalLoop=1;jettySize=auto;html=1;fontColor=#000000;" edge="1" parent="1" source="dib6iKje-ptkpL54VLFL-8" target="dib6iKje-ptkpL54VLFL-67">
          <mxGeometry relative="1" as="geometry" />
        </mxCell>
        <mxCell id="dib6iKje-ptkpL54VLFL-70" value="Text" style="edgeLabel;html=1;align=center;verticalAlign=middle;resizable=0;points=[];fontColor=#000000;" vertex="1" connectable="0" parent="dib6iKje-ptkpL54VLFL-68">
          <mxGeometry x="-0.0811" y="-3" relative="1" as="geometry">
            <mxPoint as="offset" />
          </mxGeometry>
        </mxCell>
        <mxCell id="dib6iKje-ptkpL54VLFL-8" value="IF agent is pop not rest agent" style="rhombus;whiteSpace=wrap;html=1;fontColor=#000000;" vertex="1" parent="1">
          <mxGeometry x="30" y="370" width="80" height="80" as="geometry" />
        </mxCell>
        <mxCell id="dib6iKje-ptkpL54VLFL-13" value="" style="edgeStyle=orthogonalEdgeStyle;rounded=0;orthogonalLoop=1;jettySize=auto;html=1;fontColor=#000000;" edge="1" parent="1" source="dib6iKje-ptkpL54VLFL-10" target="dib6iKje-ptkpL54VLFL-12">
          <mxGeometry relative="1" as="geometry" />
        </mxCell>
        <mxCell id="dib6iKje-ptkpL54VLFL-26" value="" style="edgeStyle=orthogonalEdgeStyle;rounded=0;orthogonalLoop=1;jettySize=auto;html=1;fontColor=#000000;" edge="1" parent="1" source="dib6iKje-ptkpL54VLFL-10" target="dib6iKje-ptkpL54VLFL-25">
          <mxGeometry relative="1" as="geometry">
            <Array as="points">
              <mxPoint x="300" y="80" />
            </Array>
          </mxGeometry>
        </mxCell>
        <mxCell id="dib6iKje-ptkpL54VLFL-10" value="TRY" style="shape=process;whiteSpace=wrap;html=1;backgroundOutline=1;fontColor=#000000;" vertex="1" parent="1">
          <mxGeometry x="240" y="10" width="120" height="60" as="geometry" />
        </mxCell>
        <mxCell id="dib6iKje-ptkpL54VLFL-16" value="" style="edgeStyle=orthogonalEdgeStyle;rounded=0;orthogonalLoop=1;jettySize=auto;html=1;fontColor=#000000;" edge="1" parent="1" source="dib6iKje-ptkpL54VLFL-12" target="dib6iKje-ptkpL54VLFL-15">
          <mxGeometry relative="1" as="geometry" />
        </mxCell>
        <mxCell id="dib6iKje-ptkpL54VLFL-12" value="call&amp;nbsp;update" style="rounded=1;whiteSpace=wrap;html=1;fillColor=#f8cecc;gradientColor=#ea6b66;strokeColor=#b85450;" vertex="1" parent="1">
          <mxGeometry x="240" y="100" width="120" height="60" as="geometry" />
        </mxCell>
        <mxCell id="dib6iKje-ptkpL54VLFL-18" value="" style="edgeStyle=orthogonalEdgeStyle;rounded=0;orthogonalLoop=1;jettySize=auto;html=1;fontColor=#000000;" edge="1" parent="1" source="dib6iKje-ptkpL54VLFL-15" target="dib6iKje-ptkpL54VLFL-17">
          <mxGeometry relative="1" as="geometry" />
        </mxCell>
        <mxCell id="dib6iKje-ptkpL54VLFL-15" value="call filteragents" style="rounded=1;whiteSpace=wrap;html=1;fillColor=#f8cecc;gradientColor=#ea6b66;strokeColor=#b85450;" vertex="1" parent="1">
          <mxGeometry x="240" y="180" width="120" height="60" as="geometry" />
        </mxCell>
        <mxCell id="dib6iKje-ptkpL54VLFL-20" value="yes" style="edgeStyle=orthogonalEdgeStyle;rounded=0;orthogonalLoop=1;jettySize=auto;html=1;fontColor=#000000;" edge="1" parent="1" source="dib6iKje-ptkpL54VLFL-17" target="dib6iKje-ptkpL54VLFL-19">
          <mxGeometry relative="1" as="geometry" />
        </mxCell>
        <mxCell id="dib6iKje-ptkpL54VLFL-17" value="IF pop in player zone" style="rhombus;whiteSpace=wrap;html=1;fontColor=#000000;" vertex="1" parent="1">
          <mxGeometry x="260" y="270" width="80" height="80" as="geometry" />
        </mxCell>
        <mxCell id="dib6iKje-ptkpL54VLFL-24" value="" style="edgeStyle=orthogonalEdgeStyle;rounded=0;orthogonalLoop=1;jettySize=auto;html=1;fontColor=#000000;" edge="1" parent="1" source="dib6iKje-ptkpL54VLFL-19" target="dib6iKje-ptkpL54VLFL-23">
          <mxGeometry relative="1" as="geometry" />
        </mxCell>
        <mxCell id="dib6iKje-ptkpL54VLFL-19" value="pop id not in zone array" style="rhombus;whiteSpace=wrap;html=1;fontColor=#000000;" vertex="1" parent="1">
          <mxGeometry x="260" y="370" width="80" height="80" as="geometry" />
        </mxCell>
        <mxCell id="dib6iKje-ptkpL54VLFL-23" value="store the pop id" style="shape=dataStorage;whiteSpace=wrap;html=1;fixedSize=1;fontColor=#000000;" vertex="1" parent="1">
          <mxGeometry x="380" y="370" width="100" height="80" as="geometry" />
        </mxCell>
        <mxCell id="dib6iKje-ptkpL54VLFL-28" value="" style="edgeStyle=orthogonalEdgeStyle;rounded=0;orthogonalLoop=1;jettySize=auto;html=1;fontColor=#000000;" edge="1" parent="1" source="dib6iKje-ptkpL54VLFL-25" target="dib6iKje-ptkpL54VLFL-27">
          <mxGeometry relative="1" as="geometry" />
        </mxCell>
        <mxCell id="dib6iKje-ptkpL54VLFL-25" value="IF state not undefined" style="rhombus;whiteSpace=wrap;html=1;fontColor=#000000;" vertex="1" parent="1">
          <mxGeometry x="430" y="40" width="80" height="80" as="geometry" />
        </mxCell>
        <mxCell id="dib6iKje-ptkpL54VLFL-30" value="YES" style="edgeStyle=orthogonalEdgeStyle;rounded=0;orthogonalLoop=1;jettySize=auto;html=1;fontColor=#000000;" edge="1" parent="1" source="dib6iKje-ptkpL54VLFL-27" target="dib6iKje-ptkpL54VLFL-29">
          <mxGeometry relative="1" as="geometry" />
        </mxCell>
        <mxCell id="dib6iKje-ptkpL54VLFL-32" value="" style="edgeStyle=orthogonalEdgeStyle;rounded=0;orthogonalLoop=1;jettySize=auto;html=1;fontColor=#000000;" edge="1" parent="1" source="dib6iKje-ptkpL54VLFL-27" target="dib6iKje-ptkpL54VLFL-31">
          <mxGeometry relative="1" as="geometry">
            <Array as="points">
              <mxPoint x="530" y="190" />
              <mxPoint x="530" y="80" />
            </Array>
          </mxGeometry>
        </mxCell>
        <mxCell id="dib6iKje-ptkpL54VLFL-33" value="NO" style="edgeLabel;html=1;align=center;verticalAlign=middle;resizable=0;points=[];fontColor=#000000;" vertex="1" connectable="0" parent="dib6iKje-ptkpL54VLFL-32">
          <mxGeometry x="-0.344" y="-5" relative="1" as="geometry">
            <mxPoint as="offset" />
          </mxGeometry>
        </mxCell>
        <mxCell id="dib6iKje-ptkpL54VLFL-27" value="IF pop state not undefined" style="rhombus;whiteSpace=wrap;html=1;fontColor=#000000;" vertex="1" parent="1">
          <mxGeometry x="430" y="150" width="80" height="80" as="geometry" />
        </mxCell>
        <mxCell id="dib6iKje-ptkpL54VLFL-29" value="user console" style="whiteSpace=wrap;html=1;fontColor=#000000;" vertex="1" parent="1">
          <mxGeometry x="410" y="270" width="120" height="60" as="geometry" />
        </mxCell>
        <mxCell id="dib6iKje-ptkpL54VLFL-35" value="" style="edgeStyle=orthogonalEdgeStyle;rounded=0;orthogonalLoop=1;jettySize=auto;html=1;fontColor=#000000;" edge="1" parent="1" source="dib6iKje-ptkpL54VLFL-31" target="dib6iKje-ptkpL54VLFL-34">
          <mxGeometry relative="1" as="geometry" />
        </mxCell>
        <mxCell id="dib6iKje-ptkpL54VLFL-41" value="" style="edgeStyle=orthogonalEdgeStyle;rounded=0;orthogonalLoop=1;jettySize=auto;html=1;fontColor=#000000;" edge="1" parent="1" source="dib6iKje-ptkpL54VLFL-31" target="dib6iKje-ptkpL54VLFL-40">
          <mxGeometry relative="1" as="geometry" />
        </mxCell>
        <mxCell id="dib6iKje-ptkpL54VLFL-52" style="edgeStyle=orthogonalEdgeStyle;rounded=0;orthogonalLoop=1;jettySize=auto;html=1;entryX=0.5;entryY=0;entryDx=0;entryDy=0;fontColor=#000000;" edge="1" parent="1" source="dib6iKje-ptkpL54VLFL-31" target="dib6iKje-ptkpL54VLFL-51">
          <mxGeometry relative="1" as="geometry" />
        </mxCell>
        <mxCell id="dib6iKje-ptkpL54VLFL-31" value="ELSEIF update data" style="rhombus;whiteSpace=wrap;html=1;fontColor=#000000;" vertex="1" parent="1">
          <mxGeometry x="550" y="40" width="80" height="80" as="geometry" />
        </mxCell>
        <mxCell id="dib6iKje-ptkpL54VLFL-37" value="yes" style="edgeStyle=orthogonalEdgeStyle;rounded=0;orthogonalLoop=1;jettySize=auto;html=1;fontColor=#000000;" edge="1" parent="1" source="dib6iKje-ptkpL54VLFL-34" target="dib6iKje-ptkpL54VLFL-36">
          <mxGeometry relative="1" as="geometry" />
        </mxCell>
        <mxCell id="dib6iKje-ptkpL54VLFL-39" value="else" style="edgeStyle=orthogonalEdgeStyle;rounded=0;orthogonalLoop=1;jettySize=auto;html=1;fontColor=#000000;" edge="1" parent="1" source="dib6iKje-ptkpL54VLFL-34" target="dib6iKje-ptkpL54VLFL-38">
          <mxGeometry relative="1" as="geometry">
            <Array as="points">
              <mxPoint x="710" y="130" />
              <mxPoint x="710" y="130" />
            </Array>
          </mxGeometry>
        </mxCell>
        <mxCell id="dib6iKje-ptkpL54VLFL-34" value="IF schema doesn&#39;t have this data&amp;nbsp;" style="rhombus;whiteSpace=wrap;html=1;fontColor=#000000;" vertex="1" parent="1">
          <mxGeometry x="670" y="40" width="80" height="80" as="geometry" />
        </mxCell>
        <mxCell id="dib6iKje-ptkpL54VLFL-36" value="create the schema instance" style="shape=process;whiteSpace=wrap;html=1;backgroundOutline=1;fillColor=#f8cecc;strokeColor=#b85450;" vertex="1" parent="1">
          <mxGeometry x="780" y="50" width="120" height="60" as="geometry" />
        </mxCell>
        <mxCell id="dib6iKje-ptkpL54VLFL-38" value="update the schema instance" style="shape=process;whiteSpace=wrap;html=1;backgroundOutline=1;fillColor=#f8cecc;strokeColor=#b85450;" vertex="1" parent="1">
          <mxGeometry x="780" y="120" width="120" height="60" as="geometry" />
        </mxCell>
        <mxCell id="dib6iKje-ptkpL54VLFL-43" value="" style="edgeStyle=orthogonalEdgeStyle;rounded=0;orthogonalLoop=1;jettySize=auto;html=1;fontColor=#000000;" edge="1" parent="1" source="dib6iKje-ptkpL54VLFL-40" target="dib6iKje-ptkpL54VLFL-42">
          <mxGeometry relative="1" as="geometry" />
        </mxCell>
        <mxCell id="dib6iKje-ptkpL54VLFL-40" value="IF update data has health&amp;nbsp;" style="rhombus;whiteSpace=wrap;html=1;fontColor=#000000;" vertex="1" parent="1">
          <mxGeometry x="630" y="180" width="80" height="80" as="geometry" />
        </mxCell>
        <mxCell id="dib6iKje-ptkpL54VLFL-45" value="yes" style="edgeStyle=orthogonalEdgeStyle;rounded=0;orthogonalLoop=1;jettySize=auto;html=1;fontColor=#000000;" edge="1" parent="1" source="dib6iKje-ptkpL54VLFL-42" target="dib6iKje-ptkpL54VLFL-44">
          <mxGeometry relative="1" as="geometry" />
        </mxCell>
        <mxCell id="dib6iKje-ptkpL54VLFL-49" value="no" style="edgeStyle=orthogonalEdgeStyle;rounded=0;orthogonalLoop=1;jettySize=auto;html=1;entryX=0;entryY=0.5;entryDx=0;entryDy=0;fontColor=#000000;" edge="1" parent="1" source="dib6iKje-ptkpL54VLFL-42" target="dib6iKje-ptkpL54VLFL-48">
          <mxGeometry relative="1" as="geometry">
            <Array as="points">
              <mxPoint x="670" y="400" />
            </Array>
          </mxGeometry>
        </mxCell>
        <mxCell id="dib6iKje-ptkpL54VLFL-42" value="IF pop health schema undefined" style="rhombus;whiteSpace=wrap;html=1;fontColor=#000000;" vertex="1" parent="1">
          <mxGeometry x="630" y="290" width="80" height="80" as="geometry" />
        </mxCell>
        <mxCell id="dib6iKje-ptkpL54VLFL-44" value="create the schema instance" style="shape=process;whiteSpace=wrap;html=1;backgroundOutline=1;fillColor=#f8cecc;strokeColor=#b85450;" vertex="1" parent="1">
          <mxGeometry x="790" y="300" width="120" height="60" as="geometry" />
        </mxCell>
        <mxCell id="dib6iKje-ptkpL54VLFL-48" value="update the schema instance" style="shape=process;whiteSpace=wrap;html=1;backgroundOutline=1;fillColor=#f8cecc;strokeColor=#b85450;" vertex="1" parent="1">
          <mxGeometry x="790" y="370" width="120" height="60" as="geometry" />
        </mxCell>
        <mxCell id="dib6iKje-ptkpL54VLFL-54" value="yes" style="edgeStyle=orthogonalEdgeStyle;rounded=0;orthogonalLoop=1;jettySize=auto;html=1;fontColor=#000000;" edge="1" parent="1" source="dib6iKje-ptkpL54VLFL-51" target="dib6iKje-ptkpL54VLFL-53">
          <mxGeometry relative="1" as="geometry" />
        </mxCell>
        <mxCell id="dib6iKje-ptkpL54VLFL-60" style="edgeStyle=orthogonalEdgeStyle;rounded=0;orthogonalLoop=1;jettySize=auto;html=1;fontColor=#000000;" edge="1" parent="1" source="dib6iKje-ptkpL54VLFL-51" target="dib6iKje-ptkpL54VLFL-59">
          <mxGeometry relative="1" as="geometry">
            <Array as="points">
              <mxPoint x="590" y="270" />
              <mxPoint x="930" y="270" />
              <mxPoint x="930" y="450" />
            </Array>
          </mxGeometry>
        </mxCell>
        <mxCell id="dib6iKje-ptkpL54VLFL-51" value="IF statelog people&amp;nbsp;" style="rhombus;whiteSpace=wrap;html=1;fontColor=#000000;" vertex="1" parent="1">
          <mxGeometry x="550" y="360" width="80" height="80" as="geometry" />
        </mxCell>
        <mxCell id="dib6iKje-ptkpL54VLFL-56" value="" style="edgeStyle=orthogonalEdgeStyle;rounded=0;orthogonalLoop=1;jettySize=auto;html=1;fontColor=#000000;" edge="1" parent="1" source="dib6iKje-ptkpL54VLFL-53">
          <mxGeometry relative="1" as="geometry">
            <mxPoint x="690" y="500" as="targetPoint" />
          </mxGeometry>
        </mxCell>
        <mxCell id="dib6iKje-ptkpL54VLFL-53" value="call filterAgents" style="rounded=1;whiteSpace=wrap;html=1;fillColor=#f8cecc;gradientColor=#ea6b66;strokeColor=#b85450;" vertex="1" parent="1">
          <mxGeometry x="530" y="470" width="120" height="60" as="geometry" />
        </mxCell>
        <mxCell id="dib6iKje-ptkpL54VLFL-57" value="update the pop data into current log" style="rounded=0;whiteSpace=wrap;html=1;fontColor=#000000;" vertex="1" parent="1">
          <mxGeometry x="690" y="470" width="120" height="60" as="geometry" />
        </mxCell>
        <mxCell id="dib6iKje-ptkpL54VLFL-62" value="" style="edgeStyle=orthogonalEdgeStyle;rounded=0;orthogonalLoop=1;jettySize=auto;html=1;fontColor=#000000;" edge="1" parent="1" source="dib6iKje-ptkpL54VLFL-59" target="dib6iKje-ptkpL54VLFL-61">
          <mxGeometry relative="1" as="geometry" />
        </mxCell>
        <mxCell id="dib6iKje-ptkpL54VLFL-59" value="IF replaylog people" style="rhombus;whiteSpace=wrap;html=1;fontColor=#000000;" vertex="1" parent="1">
          <mxGeometry x="840" y="450" width="80" height="80" as="geometry" />
        </mxCell>
        <mxCell id="dib6iKje-ptkpL54VLFL-61" value="update the pop data into current log" style="rounded=0;whiteSpace=wrap;html=1;fontColor=#000000;" vertex="1" parent="1">
          <mxGeometry x="820" y="560" width="120" height="60" as="geometry" />
        </mxCell>
        <mxCell id="dib6iKje-ptkpL54VLFL-65" value="Catch" style="shape=process;whiteSpace=wrap;html=1;backgroundOutline=1;fontColor=#000000;" vertex="1" parent="1">
          <mxGeometry x="130" y="450" width="120" height="60" as="geometry" />
        </mxCell>
        <mxCell id="dib6iKje-ptkpL54VLFL-72" style="edgeStyle=orthogonalEdgeStyle;rounded=0;orthogonalLoop=1;jettySize=auto;html=1;entryX=0;entryY=0.5;entryDx=0;entryDy=0;fontColor=#000000;" edge="1" parent="1" source="dib6iKje-ptkpL54VLFL-67" target="dib6iKje-ptkpL54VLFL-71">
          <mxGeometry relative="1" as="geometry" />
        </mxCell>
        <mxCell id="dib6iKje-ptkpL54VLFL-67" value="ELSE IF agent is foodtruck" style="rhombus;whiteSpace=wrap;html=1;fontColor=#000000;" vertex="1" parent="1">
          <mxGeometry x="30" y="820" width="80" height="80" as="geometry" />
        </mxCell>
        <mxCell id="dib6iKje-ptkpL54VLFL-74" value="" style="edgeStyle=orthogonalEdgeStyle;rounded=0;orthogonalLoop=1;jettySize=auto;html=1;fontColor=#000000;" edge="1" parent="1" source="dib6iKje-ptkpL54VLFL-71" target="dib6iKje-ptkpL54VLFL-73">
          <mxGeometry relative="1" as="geometry" />
        </mxCell>
        <mxCell id="dib6iKje-ptkpL54VLFL-76" style="edgeStyle=orthogonalEdgeStyle;rounded=0;orthogonalLoop=1;jettySize=auto;html=1;entryX=0;entryY=0.5;entryDx=0;entryDy=0;fontColor=#000000;" edge="1" parent="1" source="dib6iKje-ptkpL54VLFL-71" target="dib6iKje-ptkpL54VLFL-75">
          <mxGeometry relative="1" as="geometry">
            <Array as="points">
              <mxPoint x="220" y="680" />
              <mxPoint x="313" y="680" />
              <mxPoint x="313" y="660" />
            </Array>
          </mxGeometry>
        </mxCell>
        <mxCell id="dib6iKje-ptkpL54VLFL-71" value="TRY" style="shape=process;whiteSpace=wrap;html=1;backgroundOutline=1;fontColor=#000000;" vertex="1" parent="1">
          <mxGeometry x="160" y="610" width="120" height="60" as="geometry" />
        </mxCell>
        <mxCell id="dib6iKje-ptkpL54VLFL-73" value="call&amp;nbsp;update" style="rounded=1;whiteSpace=wrap;html=1;fillColor=#f8cecc;gradientColor=#ea6b66;strokeColor=#b85450;" vertex="1" parent="1">
          <mxGeometry x="160" y="700" width="120" height="60" as="geometry" />
        </mxCell>
        <mxCell id="dib6iKje-ptkpL54VLFL-81" value="" style="edgeStyle=orthogonalEdgeStyle;rounded=0;orthogonalLoop=1;jettySize=auto;html=1;fontColor=#000000;" edge="1" parent="1" source="dib6iKje-ptkpL54VLFL-75" target="dib6iKje-ptkpL54VLFL-79">
          <mxGeometry relative="1" as="geometry" />
        </mxCell>
        <mxCell id="dib6iKje-ptkpL54VLFL-86" value="" style="edgeStyle=orthogonalEdgeStyle;rounded=0;orthogonalLoop=1;jettySize=auto;html=1;fontColor=#000000;" edge="1" parent="1" source="dib6iKje-ptkpL54VLFL-75" target="dib6iKje-ptkpL54VLFL-82">
          <mxGeometry relative="1" as="geometry" />
        </mxCell>
        <mxCell id="dib6iKje-ptkpL54VLFL-75" value="IF state not undefined" style="rhombus;whiteSpace=wrap;html=1;fontColor=#000000;" vertex="1" parent="1">
          <mxGeometry x="345" y="620" width="80" height="80" as="geometry" />
        </mxCell>
        <mxCell id="dib6iKje-ptkpL54VLFL-78" value="YES" style="edgeStyle=orthogonalEdgeStyle;rounded=0;orthogonalLoop=1;jettySize=auto;html=1;fontColor=#000000;" edge="1" parent="1" source="dib6iKje-ptkpL54VLFL-79">
          <mxGeometry relative="1" as="geometry">
            <mxPoint x="385" y="850" as="targetPoint" />
          </mxGeometry>
        </mxCell>
        <mxCell id="dib6iKje-ptkpL54VLFL-84" value="" style="edgeStyle=orthogonalEdgeStyle;rounded=0;orthogonalLoop=1;jettySize=auto;html=1;fontColor=#000000;" edge="1" parent="1" source="dib6iKje-ptkpL54VLFL-79">
          <mxGeometry relative="1" as="geometry">
            <mxPoint x="445" y="770" as="targetPoint" />
          </mxGeometry>
        </mxCell>
        <mxCell id="dib6iKje-ptkpL54VLFL-79" value="IF truck state not undefined" style="rhombus;whiteSpace=wrap;html=1;fontColor=#000000;" vertex="1" parent="1">
          <mxGeometry x="345" y="730" width="80" height="80" as="geometry" />
        </mxCell>
        <mxCell id="dib6iKje-ptkpL54VLFL-82" value="IF truck states undefined" style="rhombus;whiteSpace=wrap;html=1;fontColor=#000000;" vertex="1" parent="1">
          <mxGeometry x="485" y="620" width="80" height="80" as="geometry" />
        </mxCell>
        <mxCell id="dib6iKje-ptkpL54VLFL-89" value="create the schema instance" style="shape=process;whiteSpace=wrap;html=1;backgroundOutline=1;fillColor=#f8cecc;strokeColor=#b85450;" vertex="1" parent="1">
          <mxGeometry x="330" y="850" width="120" height="60" as="geometry" />
        </mxCell>
        <mxCell id="dib6iKje-ptkpL54VLFL-90" value="update the schema instance" style="shape=process;whiteSpace=wrap;html=1;backgroundOutline=1;fillColor=#f8cecc;strokeColor=#b85450;" vertex="1" parent="1">
          <mxGeometry x="445" y="740" width="120" height="60" as="geometry" />
        </mxCell>
      </root>
    </mxGraphModel>
  </diagram>
</mxfile>
